<svg id="Layer_1" data-name="Layer 1" xmlns="http://www.w3.org/2000/svg" viewBox="130 0 410.71 76.94"><defs><style>.cls-1{fill:#4b9cd8;}.cls-2{fill:#3f7aae;}.cls-3{fill:#4488c1;}.cls-4{fill:#fbfbfb;}.cls-5{fill:#4599dc;}.cls-6{fill:#fff;stroke:#409bdf;stroke-linejoin:round;stroke-width:2px;}.cls-7{fill:#409bdf;}</style></defs><title>WeBuild</title><path class="cls-1" d="M595.89,332.8c-1.49,2.11-3.44,1.66-4.39,0-1.57-2.79-2.83-1.53-4.67-.5-8.91,4.95-18.87,3.12-25.16-4.48a20.8,20.8,0,0,1-.24-26.23A19.17,19.17,0,0,1,586,296.38c4.36,2.36,4.61.58,4.47-3a33.38,33.38,0,0,1,.24-7.94c.61-3,2.16-5.22,5.29-1.8Zm-5.26-18.08c.15-7.63-6.16-14.4-13.49-14.48s-13.63,6.22-14,14.08c-.31,7.44,6,14.19,13.54,14.5C583.88,329.1,590.48,322.42,590.63,314.72Z" transform="translate(-186.23 -269.5)"/><path class="cls-2" d="M412.78,317.28c-4.17,0-8.33.09-12.49,0-3-.09-3.43.95-2.28,3.55a13.41,13.41,0,0,0,19.41,5.73,20,20,0,0,0,3.06-2.53c1.56-1.47,3.33-1.9,4.84-.34s.82,3.29-.47,4.9c-6.05,7.56-18.3,8.62-26.65,2.26a20.88,20.88,0,0,1-6.71-23.31A20,20,0,0,1,411.54,294a20.44,20.44,0,0,1,18.14,15.42c1.56,6.49.56,7.81-5.92,7.82Zm-2.34-5.42c3.16,0,6.33-.19,9.47.05,4.29.32,3.84-1.64,2.38-4.32-2.62-4.81-6.77-7.44-12.13-7.36-5.59.08-9.63,3.12-12.25,8.06-1.58,3-.43,3.76,2.56,3.62C403.78,311.75,407.11,311.87,410.44,311.86Z" transform="translate(-186.23 -269.5)"/><path class="cls-2" d="M449,334.27c-2.67,0-5.33,0-8,0-2,0-3.82-.59-3.89-2.92-.08-2.57,1.77-3.35,4-3.37,4.66,0,9.32,0,14,0,6.56-.09,10.69-3.73,10.64-9.29s-4.14-9-10.84-9c-3.83,0-7.66.07-11.48,0-2.55-.06-6.1.64-6.24-3.13-.14-3.93,3.43-3.24,6-3.3,3.66-.08,7.33.08,11-.05,4.56-.16,7.81-3.32,7.83-7.37s-3.14-7.17-7.82-7.38c-3.82-.17-7.66,0-11.48-.06-2.45-.06-5.61.25-5.52-3.36.08-3.25,3-3,5.31-3,4,0,8-.12,12,.06,10.85.47,16.88,10.65,11.84,20.23-1.28,2.43-.93,3.56.92,5.33,4.93,4.73,6.18,10.57,3.65,16.9s-7.63,9.42-14.39,9.71c-2.49.11-5,0-7.48,0Z" transform="translate(-186.23 -269.5)"/><path class="cls-2" d="M339,317.4c4.29-10.72,7.94-20.07,11.8-29.34,1.1-2.64,1.45-7.39,5.85-5.63s1.26,5.51.26,8.09c-5.29,13.6-10.82,27.11-16.32,40.63-.46,1.11-.42,3-2.23,2.87s-1.66-1.94-2-3.08q-7.12-21.22-14.07-42.51c-.8-2.43-1.68-5.24,1.7-6.23s4.1,2,4.89,4.34C332.07,296.28,335.26,306.05,339,317.4Z" transform="translate(-186.23 -269.5)"/><path class="cls-3" d="M480,308.76q0-4.5,0-9c0-2.25.65-4.1,3.28-4,2.36,0,3,1.84,3,3.84,0,5.49-.07,11,.12,16.48.3,8.46,6.15,13.77,13.42,12.4,5.51-1,9.2-5.21,9.46-11.26.23-5.49,0-11,.14-16.48,0-2.34.05-5.13,3.39-5,2.86.12,3.08,2.58,3.09,4.84,0,5.49.19,11-.08,16.48-.54,10.57-8.41,18.16-18.28,18s-17.26-8.14-17.51-18.73C479.91,313.75,480,311.26,480,308.76Z" transform="translate(-186.23 -269.5)"/><path class="cls-2" d="M371,317.18c3.26-9.78,6.11-18.36,9-26.94.57-1.72,1.18-3.44,1.78-5.16.73-2.11,2-3.66,4.42-2.88s2.7,2.68,2,4.89-1.45,4.4-2.17,6.6q-6.17,18.63-12.36,37.26c-.4,1.19-.45,3-2.07,3.1s-1.78-1.82-2.23-2.93c-3.15-7.66-6.18-15.37-9.21-23.08-.77-2-1.18-4.11,1.19-5.16,2.57-1.14,4,.44,4.9,2.73C367.53,309.06,369,312.49,371,317.18Z" transform="translate(-186.23 -269.5)"/><path class="cls-1" d="M541.93,307.46c0-7,0-13.93,0-20.89,0-2.38.42-4.58,3.35-4.42,2.61.15,2.84,2.31,2.84,4.43q0,21.65,0,43.28c0,2.15-.32,4.18-3.06,4.14s-3.12-1.95-3.12-4.15C541.94,322.38,541.93,314.92,541.93,307.46Z" transform="translate(-186.23 -269.5)"/><path class="cls-3" d="M530.78,331.92c-.39,1.89-1.75,2.35-3.36,2s-2.3-1.78-2.3-3.38c0-10.44-.11-20.88.08-31.32.06-3,1.61-4.75,4.82-2.5,0,8.14-.16,16.29,0,24.43C530.1,324.75,529.08,328.44,530.78,331.92Z" transform="translate(-186.23 -269.5)"/><path class="cls-3" d="M532.32,286.33c-.39,2.43-1.64,4.19-4.17,4.07s-4.36-1.67-4.12-4.51a3.87,3.87,0,0,1,4.37-3.76C530.94,282.22,532.13,283.92,532.32,286.33Z" transform="translate(-186.23 -269.5)"/><path class="cls-1" d="M595.89,332.8l.12-49.17c1,1.07.93,2.42.93,3.74q0,20.89,0,41.79C596.9,330.44,597.22,331.86,595.89,332.8Z" transform="translate(-186.23 -269.5)"/><path class="cls-2" d="M530.78,331.92c-1.7-3.48-.68-7.17-.75-10.75-.17-8.14,0-16.29,0-24.43a2.76,2.76,0,0,1,1,2.62Q530.93,315.65,530.78,331.92Z" transform="translate(-186.23 -269.5)"/></svg>